# xmcd
#
# Track frame offsets:
#	150
#	11870
#	23450
#	36428
#	47750
#	64068
#	77213
#	90490
#	102450
#	115538
#	129348
#	142473
#	157540
#	172133
#	186595
#	200103
#	213573
#	224463
#
# Disc length: 3168 seconds
#
# Revision: 0
# Processed by: cddbd v1.5.2PL0 Copyright (c) Steve Scherf et al.
# Submitted via: audiograbber 1.83.01
#
DISCID=0b0c5e12
DTITLE=Django Reinhardt - Quintette Du Hot Club De France
DYEAR=1985
DGENRE=Jazz
TTITLE0=Quintette Du Hot Club De France - Dinah
TTITLE1=Quintette Du Hot Club De France - Tiger rag
TTITLE2=Quintette Du Hot Club De France - Lady be good
TTITLE3=Quintette Du Hot Club De France - I Saw stars
TTITLE4=Quintette Du Hot Club De France - Lily belle may june
TTITLE5=Quintette Du Hot Club De France - Sweet Sue
TTITLE6=Quintette Du Hot Club De France - Confessin'
TTITLE7=Quintette Du Hot Club De France - Continental
TTITLE8=Quintette Du Hot Club De France - Blue drag
TTITLE9=Quintette Du Hot Club De France - Swane river
TTITLE10=Quintette Du Hot Club De France - Ton doux sourrire
TTITLE11=Quintette Du Hot Club De France - Ultra fox
TTITLE12=Quintette Du Hot Club De France - Clouds
TTITLE13=Quintette Du Hot Club De France - Believe it beloved
TTITLE14=Quintette Du Hot Club De France - Chasing shadows
TTITLE15=Quintette Du Hot Club De France - I Have my momentsW. Donaldson]
TTITLE16=Quintette Du Hot Club De France - Some of these days
TTITLE17=Quintette Du Hot Club De France - Djangology
EXTD=\n
EXTT0=
EXTT1=
EXTT2=
EXTT3=
EXTT4=
EXTT5=
EXTT6=
EXTT7=
EXTT8=
EXTT9=
EXTT10=
EXTT11=
EXTT12=
EXTT13=
EXTT14=
EXTT15=
EXTT16=
EXTT17=
PLAYORDER=
